<svg id="Слой_1" data-name="Слой 1" xmlns="http://www.w3.org/2000/svg" viewBox="0 0 566.93 566.93">
  <g>
    <path d="M132,230.64q0-23.76,8.49-32.51t32.42-8.74h120.6q23.59,0,32.09,8.66t8.5,32.59v91.89q0,24.09-8.5,32.66t-32.09,8.58h-20l20.62,42.57H266.42L248,363.77H172.88q-23.92,0-32.42-8.74T132,322.53ZM262.14,339.52h43.22V213.15H161V339.52h75.73l-18-40.25,19.63-7.76Z"/>
    <path d="M303.9,363.77V189.39h29.2V339.52h132v24.25Z"/>
  </g>
  <path d="M412.3,283H389.58V279.1q0-7.65,1.71-11.3a11.82,11.82,0,0,1,6.25-5.67l4.16-1.83q4.73-2.08,4.72-5.88a5.22,5.22,0,0,0-5.27-5.27q-6,0-6,8.33H374q0-11.15,5.14-18.19A27.1,27.1,0,0,1,389,231,27.58,27.58,0,0,1,401.58,228,26.77,26.77,0,0,1,421,235.58a25.27,25.27,0,0,1,7.87,18.9q0,13.91-11.27,19.54c-2.44,1.22-3.94,2.28-4.47,3.18S412.3,280,412.3,283Zm-11,3.24a14,14,0,0,1,10.32,4.35A14.18,14.18,0,0,1,416,300.9a13.75,13.75,0,0,1-4.28,10.2,14.26,14.26,0,0,1-10.36,4.2,14.57,14.57,0,0,1-10.22-24.84A13.85,13.85,0,0,1,401.33,286.2Z" style="fill: #ff0303"/>
  <circle cx="284.62" cy="280.82" r="254.82" style="fill: none;stroke: #000;stroke-miterlimit: 10;stroke-width: 26.426131286599343px"/>
</svg>
