<svg id="Layer_1" data-name="Layer 1" xmlns="http://www.w3.org/2000/svg" viewBox="0 0 200 200"><defs><style>.cls-1{fill: white;}</style></defs><title>Wondicon - UI (Free)</title><path class="cls-1" d="M100,175.84A75.84,75.84,0,1,1,175.84,100,75.92,75.92,0,0,1,100,175.84Zm0-141.68A65.84,65.84,0,1,0,165.84,100,65.91,65.91,0,0,0,100,34.16Z"/><path class="cls-1" d="M74.91,129.91a5,5,0,0,1-3.54-8.54l75.09-75.09a5,5,0,1,1,7.07,7.07L78.44,128.44A5,5,0,0,1,74.91,129.91Z"/><path class="cls-1" d="M150,129.91a5,5,0,0,1-3.54-1.47L71.37,53.35a5,5,0,1,1,7.07-7.07l75.09,75.09a5,5,0,0,1-3.53,8.54Z"/></svg>